<svg width="60" height="60" viewBox="0 0 60 60" fill="none" xmlns="http://www.w3.org/2000/svg">
<path d="M11.1638 53.3754C10.6641 53.3754 10.1849 53.1769 9.8316 52.8236C9.47828 52.4703 9.27979 51.9911 9.27979 51.4914V10.0521C9.28001 9.72494 9.36545 9.40345 9.52768 9.1193C9.68991 8.83516 9.92335 8.59816 10.205 8.43165C10.4867 8.26513 10.8068 8.17484 11.134 8.16967C11.4611 8.16449 11.784 8.24461 12.0708 8.40213L49.7428 29.1223C50.038 29.285 50.2841 29.5239 50.4556 29.8141C50.627 30.1043 50.7174 30.4352 50.7174 30.7723C50.7174 31.1093 50.627 31.4402 50.4556 31.7305C50.2841 32.0207 50.038 32.2596 49.7428 32.4223L12.0708 53.1414C11.793 53.2946 11.481 53.3751 11.1638 53.3754Z" fill="white"/>
</svg>
